<?xml version="1.0" encoding="utf-8"?>
<!-- Generator: $$$/GeneralStr/196=Adobe Illustrator 27.6.0, SVG Export Plug-In . SVG Version: 6.00 Build 0)  -->
<svg version="1.1" id="圖層_1" xmlns="http://www.w3.org/2000/svg" xmlns:xlink="http://www.w3.org/1999/xlink" x="0px" y="0px"
	 viewBox="0 0 283.5 283.5" style="enable-background:new 0 0 283.5 283.5;" xml:space="preserve">
<style type="text/css">
	.st0{fill:#70A52E;}
</style>
<g id="圖層_2_00000129195614379833463610000014170336027758654649_">
	<polygon class="st0" points="219.1,163.5 118,62.3 238.5,46.7 	"/>
	
		<rect x="83.3" y="113" transform="matrix(0.7071 -0.7071 0.7071 0.7071 -63.184 138.6977)" class="st0" width="105" height="65.2"/>
	<path class="st0" d="M33.7,200.5c-2.1-0.7-4-2-5.5-3.6c-5.1-5.1-4.9-10.4,0.6-16l14.7-14.7l-4.5-4.5l4.5-4.5l4.5,4.6l6.3-6.3l7.4,4
		l-8,8l6.5,6.5l-4.5,4.5l-6.5-6.5l-13.7,13.7c-1.7,1.6-2.6,3.1-2.7,4.5c-0.1,1.5,0.6,3,1.7,4c1,1,2.3,1.7,3.7,1.9L33.7,200.5z"/>
	<path class="st0" d="M49.8,190.8c4.4-4.4,9.2-6.7,14.3-6.7c5.1,0,9.8,2.1,14.2,6.5c4.1,4.1,6.1,8.6,6,13.4
		c-0.1,4.9-2.3,9.4-6.6,13.8c-4.3,4.3-9,6.5-14.2,6.6s-9.8-2-14-6.2c-4.1-4.1-6.2-8.7-6.1-13.6C43.4,199.6,45.6,195,49.8,190.8z
		 M55.8,196.5c-3,3-4.5,6-4.8,9.1c-0.2,3.1,1,6.2,3.4,8.3c5.2,5.2,10.9,4.6,17.3-1.8c3.1-3.1,4.7-6.1,5-9c0.3-2.9-0.9-5.6-3.3-8.2
		c-2.1-2.4-5.3-3.6-8.5-3.3C61.8,191.9,58.7,193.5,55.8,196.5z"/>
	<path class="st0" d="M79.7,239.8l-16,16l-5.7-5.7l39.3-39.3l5.7,5.7l-4.5,4.4l0.1,0.1c5.1-1.4,10.5,0.1,14.2,3.9
		c3.4,3.4,4.9,7.3,4.5,11.7c-0.4,4.3-2.7,8.6-6.8,12.7c-4.5,4.5-9.2,7-14.1,7.5c-4.9,0.5-9.7-1.3-13-4.9c-3.3-3.1-4.6-7.7-3.5-12
		L79.7,239.8z M87.4,232.1c-2,1.9-3.2,4.5-3.4,7.2c-0.1,5.4,4.1,9.8,9.5,9.9c0.5,0,1.1,0,1.6-0.1c3.1-0.5,6.3-2.4,9.6-5.6
		c2.8-2.8,4.3-5.5,4.6-8.3c0.3-2.8-0.8-5.5-2.8-7.4c-2-2.1-4.8-3.2-7.8-3c-3.1,0.3-6,1.7-8.1,4L87.4,232.1z"/>
</g>
</svg>
